<svg width="24" height="24" viewBox="0 0 24 24" fill="none" xmlns="http://www.w3.org/2000/svg">
<path d="M23.1843 15.9195L19.9993 5.30267C19.9355 5.08866 19.8246 4.89165 19.6748 4.7261C19.5249 4.56054 19.3399 4.43065 19.1333 4.34594L19.0829 4.36123L19.1344 4.34324C18.089 3.91701 17.0047 3.59339 15.8967 3.37695C15.8001 3.35774 15.7007 3.35775 15.6041 3.37697C15.5075 3.3962 15.4156 3.43426 15.3337 3.48899C15.2518 3.54372 15.1815 3.61404 15.1268 3.69594C15.0721 3.77784 15.034 3.86971 15.0148 3.96632C14.9956 4.06292 14.9956 4.16236 15.0149 4.25896C15.0341 4.35556 15.0721 4.44743 15.1269 4.52932C15.1816 4.61121 15.2519 4.68152 15.3338 4.73623C15.4157 4.79095 15.5076 4.82899 15.6042 4.8482C16.0246 4.93179 16.4366 5.03015 16.8403 5.14327C16.9983 5.22133 17.1238 5.35271 17.1944 5.51423C17.265 5.67575 17.2763 5.85703 17.2263 6.02609C17.1763 6.19514 17.0682 6.34109 16.921 6.43818C16.7739 6.53527 16.5972 6.57727 16.4221 6.55676C13.555 5.82019 10.5489 5.81427 7.6789 6.53954C7.50057 6.58339 7.31236 6.56025 7.14997 6.47451C6.98758 6.38877 6.86231 6.24639 6.79795 6.07441C6.73359 5.90242 6.73461 5.71279 6.80081 5.5415C6.86701 5.37021 6.99379 5.22919 7.15709 5.1452L7.1603 5.14629C7.56368 5.03332 7.9762 4.93482 8.39786 4.85081C8.59293 4.81199 8.7646 4.69728 8.87511 4.53191C8.98561 4.36653 9.02591 4.16403 8.98712 3.96895C8.94833 3.77387 8.83365 3.60218 8.66829 3.49165C8.50293 3.38112 8.30044 3.3408 8.10535 3.37956C6.99736 3.59602 5.91302 3.91964 4.86763 4.34585C4.66102 4.43057 4.47599 4.56047 4.32612 4.72602C4.17625 4.89157 4.06535 5.08857 4.00154 5.30257L0.816513 15.9195C0.734233 16.1973 0.733681 16.4929 0.814923 16.7709C0.896164 17.049 1.05576 17.2978 1.27464 17.4876C1.36414 17.5654 1.45587 17.6418 1.54889 17.7174C1.55109 17.7192 1.55296 17.7213 1.55516 17.7231C3.07677 18.9574 5.07111 19.9004 7.32253 20.45C7.51576 20.4972 7.71981 20.4656 7.88981 20.3624C8.0598 20.2591 8.18181 20.0925 8.22899 19.8993C8.27617 19.7061 8.24465 19.502 8.14138 19.332C8.03811 19.162 7.87153 19.04 7.6783 18.9928C6.66577 18.7494 5.6812 18.4018 4.74037 17.9553L4.74655 17.9558C4.61463 17.8362 4.52958 17.6735 4.50664 17.4969C4.48369 17.3203 4.52435 17.1414 4.62134 16.992C4.71832 16.8427 4.86529 16.7327 5.03595 16.6818C5.2066 16.631 5.38979 16.6425 5.55272 16.7143C7.3326 17.5071 9.56882 17.9999 12.0004 17.9999C14.432 17.9999 16.6698 17.5066 18.4497 16.7138C18.6126 16.6423 18.7957 16.6311 18.9661 16.6823C19.1365 16.7334 19.2832 16.8434 19.3799 16.9928C19.4767 17.1421 19.5171 17.3209 19.4941 17.4974C19.4711 17.6738 19.3861 17.8363 19.2543 17.9558L19.2605 17.9553C18.3196 18.4018 17.3351 18.7494 16.3225 18.9928C16.1293 19.04 15.9627 19.162 15.8594 19.332C15.7562 19.502 15.7247 19.7061 15.7718 19.8993C15.819 20.0925 15.941 20.2591 16.111 20.3624C16.281 20.4656 16.4851 20.4972 16.6783 20.45C18.9297 19.9004 20.9241 18.9574 22.4457 17.7231C22.448 17.7212 22.4499 17.7191 22.4521 17.7173H22.4522C22.5451 17.6417 22.6368 17.5653 22.7263 17.4875C22.9451 17.2977 23.1047 17.0489 23.1859 16.7709C23.2671 16.4928 23.2666 16.1972 23.1843 15.9195ZM9.00041 14.6249C8.77791 14.6249 8.5604 14.559 8.3754 14.4353C8.19039 14.3117 8.0462 14.136 7.96105 13.9304C7.8759 13.7249 7.85362 13.4987 7.89703 13.2805C7.94044 13.0622 8.04758 12.8618 8.20492 12.7044C8.36225 12.5471 8.56271 12.44 8.78094 12.3965C8.99916 12.3531 9.22536 12.3754 9.43093 12.4606C9.6365 12.5457 9.8122 12.6899 9.93582 12.8749C10.0594 13.0599 10.1254 13.2774 10.1254 13.4999C10.1254 13.7983 10.0069 14.0844 9.79591 14.2954C9.58493 14.5064 9.29878 14.6249 9.00041 14.6249ZM15.0004 14.6249C14.7779 14.6249 14.5604 14.559 14.3754 14.4353C14.1904 14.3117 14.0462 14.136 13.961 13.9304C13.8759 13.7249 13.8536 13.4987 13.897 13.2805C13.9404 13.0622 14.0476 12.8618 14.2049 12.7044C14.3623 12.5471 14.5627 12.44 14.7809 12.3965C14.9992 12.3531 15.2254 12.3754 15.4309 12.4606C15.6365 12.5457 15.8122 12.6899 15.9358 12.8749C16.0594 13.0599 16.1254 13.2774 16.1254 13.4999C16.1254 13.7983 16.0069 14.0844 15.7959 14.2954C15.5849 14.5064 15.2988 14.6249 15.0004 14.6249Z" fill="white"/>
</svg>
