<svg width="19" height="14" viewBox="0 0 19 14" fill="none" xmlns="http://www.w3.org/2000/svg">
<path d="M2.21351 2.85597C2.2367 2.63949 2.14932 2.42553 1.97821 2.27984L0.235294 0.296296V0H5.64706L9.83007 8.66667L13.5076 0H18.6667V0.296296L17.1765 1.64609C17.048 1.7386 16.9843 1.89066 17.0109 2.04115V11.9588C16.9843 12.1093 17.048 12.2614 17.1765 12.3539L18.6318 13.7037V14H11.3115V13.7037L12.8192 12.321C12.9673 12.1811 12.9673 12.1399 12.9673 11.9259V3.90947L8.7756 13.9671H8.20915L3.32898 3.90947V10.6502C3.28829 10.9336 3.38792 11.2189 3.59913 11.4239L5.55991 13.6708V13.9671H0V13.6708L1.96078 11.4239C2.17046 11.2186 2.26428 10.9314 2.21351 10.6502V2.85597Z" fill="white"/>
</svg>
