<svg width="24" height="24" viewBox="0 0 24 24" fill="none" xmlns="http://www.w3.org/2000/svg">
<path d="M21.6808 2.97529C21.4742 2.79684 21.2226 2.67833 20.9534 2.63259C20.6842 2.58686 20.4077 2.61564 20.1537 2.71583L2.85142 9.51316C2.54984 9.63164 2.29473 9.84459 2.12426 10.1201C1.9538 10.3957 1.87714 10.719 1.90577 11.0418C1.9344 11.3646 2.06676 11.6694 2.28307 11.9106C2.49937 12.1519 2.78798 12.3166 3.10571 12.3801L7.5006 13.2591V18.7485C7.50035 19.0453 7.58817 19.3355 7.75295 19.5823C7.91773 19.8292 8.15205 20.0216 8.42625 20.1351C8.70044 20.2487 9.00217 20.2784 9.29322 20.2203C9.58428 20.1623 9.85157 20.0192 10.0612 19.8092L12.4934 17.377L16.1849 20.6256C16.4567 20.8669 16.8074 21.0004 17.1709 21.0008C17.3289 21.0007 17.4859 20.9758 17.6362 20.927C17.8841 20.8484 18.1071 20.7062 18.2829 20.5145C18.4586 20.3228 18.581 20.0883 18.6379 19.8345L22.1642 4.44709C22.2256 4.18101 22.213 3.90321 22.1278 3.64377C22.0426 3.38433 21.888 3.15316 21.6808 2.97529ZM17.1758 19.4995L9.45155 12.702L20.5745 4.66888L17.1758 19.4995Z" fill="white"/>
</svg>
