<svg width="24" height="24" viewBox="0 0 24 24" fill="none" xmlns="http://www.w3.org/2000/svg">
<path d="M23.0301 7.28045L20.2455 10.0651C20.1707 12.8172 19.1202 15.5014 17.3372 17.4721C15.2489 19.7801 12.3659 21.0001 8.99976 21.0001C5.72675 21.0001 4.03961 19.3507 3.96939 19.2804C3.87346 19.1845 3.80535 19.0643 3.77232 18.9327C3.73929 18.8012 3.74257 18.6631 3.78181 18.5332C3.82105 18.4033 3.89479 18.2865 3.99517 18.1953C4.09554 18.104 4.2188 18.0416 4.35181 18.0149C5.15225 17.8527 7.13913 17.2212 7.98462 16.0831C7.07811 15.5604 6.27315 14.8787 5.60828 14.0706C3.25592 11.2141 3.30577 7.62441 3.76184 5.11596C3.78759 4.97436 3.85354 4.84316 3.95181 4.73801C4.05008 4.63287 4.17653 4.55822 4.31607 4.52297C4.4556 4.48772 4.60233 4.49336 4.73875 4.53922C4.87517 4.58508 4.99551 4.66922 5.08542 4.78161C5.11119 4.81365 7.5762 7.83361 11.2498 8.82023V8.2504C11.2577 7.04948 11.7421 5.90084 12.5967 5.05701C13.4512 4.21318 14.6059 3.74322 15.8068 3.75045C16.5869 3.76125 17.3508 3.9742 18.024 4.3685C18.6972 4.7628 19.2566 5.32496 19.6476 6.00008L22.4998 6.00013C22.6481 6.00013 22.7931 6.04411 22.9164 6.12652C23.0398 6.20893 23.1359 6.32606 23.1927 6.4631C23.2494 6.60014 23.2643 6.75094 23.2354 6.89643C23.2064 7.04191 23.135 7.17555 23.0301 7.28045Z" fill="white"/>
</svg>
