<svg width="24" height="24" viewBox="0 0 24 24" fill="none" xmlns="http://www.w3.org/2000/svg">
<path d="M21.9685 6.5436C21.8796 6.19865 21.7099 5.87979 21.4734 5.61334C21.237 5.34688 20.9406 5.14048 20.6087 5.01115C17.3959 3.77656 12.2793 3.78686 12 3.78832C11.7208 3.78608 6.6042 3.77651 3.39139 5.01115C3.05947 5.14047 2.76307 5.34687 2.52663 5.6133C2.2902 5.87974 2.1205 6.19858 2.03155 6.54351C1.78903 7.47451 1.5 9.17689 1.5 12.0001C1.5 14.8233 1.78903 16.5256 2.03151 17.4566C2.12044 17.8015 2.29013 18.1204 2.52657 18.3869C2.763 18.6533 3.05942 18.8597 3.39134 18.9891C6.46692 20.171 11.2871 20.2121 11.9382 20.2121C11.9964 20.2121 12.0036 20.2121 12.0618 20.2121C12.7134 20.212 17.5332 20.1709 20.6086 18.9891C20.9405 18.8597 21.2369 18.6533 21.4734 18.3869C21.7098 18.1205 21.8795 17.8016 21.9684 17.4567C22.211 16.5257 22.5 14.8233 22.5 12.0001C22.5 9.17693 22.211 7.47456 21.9685 6.5436ZM15.208 12.3121L10.708 15.3121C10.6515 15.3498 10.5859 15.3714 10.5181 15.3747C10.4503 15.378 10.3829 15.3628 10.323 15.3307C10.2632 15.2987 10.2132 15.251 10.1783 15.1928C10.1434 15.1346 10.125 15.068 10.125 15.0001V9.0001C10.125 8.93222 10.1434 8.86561 10.1783 8.80738C10.2132 8.74915 10.2632 8.70148 10.323 8.66945C10.3829 8.63742 10.4503 8.62224 10.5181 8.62552C10.5859 8.6288 10.6515 8.65043 10.708 8.68809L15.208 11.6881C15.2594 11.7223 15.3015 11.7687 15.3306 11.8232C15.3598 11.8776 15.375 11.9384 15.375 12.0001C15.375 12.0618 15.3598 12.1226 15.3306 12.177C15.3015 12.2315 15.2594 12.2779 15.208 12.3121Z" fill="white"/>
</svg>
