<svg width="128" height="128" viewBox="0 0 128 128" fill="none" xmlns="http://www.w3.org/2000/svg">
<rect width="128" height="128" rx="64" fill="#4553E5"/>
<path d="M19.5 57.8666V70.1245C19.5 72.0535 21.0674 73.62 22.9984 73.62H35.265C37.1959 73.62 38.7634 72.0535 38.7634 70.1245V57.8666C38.7634 55.9376 37.1959 54.3711 35.265 54.3711H22.9984C21.0674 54.375 19.5 55.9376 19.5 57.8666Z" fill="white"/>
<path d="M96.5543 41.2529V28.9955C96.5543 27.066 94.9868 25.5 93.0559 25.5H42.2621C40.3311 25.5 38.7637 27.066 38.7637 28.9955V50.8798C38.7637 52.8093 40.3311 54.3753 42.2621 54.3753H53.9858C55.9167 54.3753 57.4841 55.9418 57.4841 57.8713V70.1287C57.4841 72.0582 55.9167 73.6247 53.9858 73.6247H42.2621C40.3311 73.6247 38.7637 75.1907 38.7637 77.1202V99.0045C38.7637 100.934 40.3311 102.5 42.2621 102.5H93.0559C94.9868 102.5 96.5543 100.934 96.5543 99.0045V86.7389C96.5543 84.8094 94.9868 83.2429 93.0559 83.2429H61.5254C59.595 83.2429 58.0271 81.6764 58.0271 79.7474V73.6165H93.0559C94.9868 73.6165 96.5543 72.05 96.5543 70.1205V57.867C96.5543 55.9379 94.9868 54.3714 93.0559 54.3714H58.0271V48.2444C58.0271 46.3154 59.595 44.7489 61.5254 44.7489H93.0559C94.9868 44.7489 96.5543 43.1824 96.5543 41.2529Z" fill="white"/>
</svg>
