<svg width="55" height="12" viewBox="0 0 55 12" fill="none" xmlns="http://www.w3.org/2000/svg">
<path fill-rule="evenodd" clip-rule="evenodd" d="M4.65643 9.6848L6.7573 7.59961V3.6775H2.83519L0.75 5.78006H4.65474L4.65643 9.6848Z" fill="#9FA3AA"/>
<path d="M10.6486 9.1769V3.57008H14.5734V4.25091H11.3695V6.01305H13.9726V6.69388H11.3695V8.49607H14.5734V9.1769H10.6486ZM15.0568 5.17203H15.7376L16.6587 8.57616H17.3395L18.2607 5.17203H18.9415L17.8201 9.1769H16.1781L15.0568 5.17203ZM20.0099 8.66427C19.6201 8.26912 19.4252 7.77252 19.4252 7.17446C19.4252 6.5764 19.6201 6.0798 20.0099 5.68465C20.3997 5.2895 20.8856 5.09193 21.4677 5.09193C22.0497 5.09193 22.5356 5.28683 22.9255 5.67664C23.3153 6.06645 23.5102 6.55237 23.5102 7.13441V7.3747H20.066C20.1087 7.74849 20.2609 8.05553 20.5225 8.29582C20.7842 8.53612 21.0992 8.65626 21.4677 8.65626C21.8628 8.65626 22.2019 8.53612 22.4849 8.29582C22.6131 8.18903 22.7145 8.06888 22.7893 7.93539H23.4301C23.334 8.18636 23.1978 8.40796 23.0216 8.60019C22.6051 9.03806 22.0871 9.25699 21.4677 9.25699C20.8856 9.25699 20.3997 9.05942 20.0099 8.66427ZM20.082 6.81402H22.8293C22.7813 6.49897 22.6344 6.23465 22.3888 6.02106C22.1432 5.80213 21.8361 5.69266 21.4677 5.69266C21.0992 5.69266 20.7895 5.80213 20.5386 6.02106C20.2876 6.23465 20.1354 6.49897 20.082 6.81402ZM24.39 9.1769V5.17203H25.0308V5.81281H25.0388C25.1135 5.67931 25.2043 5.56717 25.3111 5.4764C25.5728 5.24678 25.8931 5.13198 26.2723 5.13198H26.7529V5.77276H26.2723C25.9092 5.77276 25.6101 5.89023 25.3752 6.12518C25.1456 6.3548 25.0308 6.65116 25.0308 7.01427V9.1769H24.39ZM27.1524 7.93539H27.8332C27.892 8.07956 27.9694 8.19971 28.0655 8.29582C28.3058 8.53612 28.6155 8.65626 28.9946 8.65626C29.3364 8.65626 29.5874 8.60019 29.7476 8.48806C29.9131 8.37592 29.9959 8.23175 29.9959 8.05553C29.9959 7.95941 29.9612 7.87665 29.8917 7.80723C29.8277 7.73781 29.7209 7.6764 29.5713 7.62301C29.4218 7.56961 29.2883 7.52956 29.1709 7.50286C29.0587 7.47082 28.8932 7.43344 28.6743 7.39072C27.7932 7.20917 27.3527 6.81669 27.3527 6.21329C27.3527 5.89824 27.4861 5.63392 27.7531 5.42033C28.0201 5.20139 28.3939 5.09193 28.8745 5.09193C29.4726 5.09193 29.9451 5.29217 30.2922 5.69266C30.4311 5.87421 30.5325 6.07446 30.5966 6.29339H29.9158C29.8677 6.18659 29.7983 6.08781 29.7075 5.99703C29.5046 5.79412 29.2269 5.69266 28.8745 5.69266C28.5915 5.69266 28.3726 5.74606 28.2177 5.85285C28.0682 5.95965 27.9934 6.0798 27.9934 6.21329C27.9934 6.30941 28.0255 6.39218 28.0895 6.46159C28.159 6.53101 28.2684 6.59242 28.4179 6.64582C28.5675 6.69922 28.6983 6.74193 28.8104 6.77397C28.9279 6.80067 29.0961 6.83538 29.315 6.8781C30.1961 7.05965 30.6366 7.45213 30.6366 8.05553C30.6366 8.39728 30.4925 8.68296 30.2041 8.91257C29.9158 9.14219 29.5126 9.25699 28.9946 9.25699C28.3432 9.25699 27.8412 9.03806 27.4888 8.60019C27.3393 8.40796 27.2272 8.18636 27.1524 7.93539ZM31.8522 8.66427C31.4678 8.26912 31.2755 7.77252 31.2755 7.17446C31.2755 6.5764 31.4678 6.0798 31.8522 5.68465C32.2367 5.2895 32.712 5.09193 33.278 5.09193C33.9348 5.09193 34.4554 5.32688 34.8399 5.79679C35.0054 6.00504 35.1256 6.23732 35.2003 6.49363H34.5595C34.5008 6.34946 34.4127 6.21596 34.2952 6.09315C34.0389 5.82615 33.6998 5.69266 33.278 5.69266C32.8882 5.69266 32.5624 5.83149 32.3008 6.10917C32.0445 6.38684 31.9163 6.74193 31.9163 7.17446C31.9163 7.60699 32.0498 7.96208 32.3168 8.23976C32.5838 8.51743 32.9042 8.65626 33.278 8.65626C33.7158 8.65626 34.0656 8.50942 34.3273 8.21573C34.4447 8.09291 34.5355 7.94607 34.5996 7.77519H35.2404C35.1709 8.04752 35.0481 8.29582 34.8719 8.5201C34.4661 9.01136 33.9348 9.25699 33.278 9.25699C32.712 9.25699 32.2367 9.05942 31.8522 8.66427ZM36.3652 8.66427C35.9914 8.26378 35.8045 7.76718 35.8045 7.17446C35.8045 6.58174 35.9914 6.08781 36.3652 5.69266C36.739 5.29217 37.1928 5.09193 37.7268 5.09193C38.0632 5.09193 38.3462 5.15601 38.5759 5.28416C38.8108 5.41232 38.9817 5.55115 39.0885 5.70067L39.1606 5.82081H39.1686V5.17203H39.8094V9.1769H39.1686V8.53612H39.1606L39.0885 8.64825C38.9924 8.79243 38.8268 8.93126 38.5919 9.06476C38.3569 9.19291 38.0686 9.25699 37.7268 9.25699C37.1928 9.25699 36.739 9.05942 36.3652 8.66427ZM36.8297 6.10917C36.5734 6.38684 36.4453 6.74193 36.4453 7.17446C36.4453 7.60699 36.5734 7.96208 36.8297 8.23976C37.0914 8.51743 37.4171 8.65626 37.8069 8.65626C38.1967 8.65626 38.5198 8.51743 38.7761 8.23976C39.0378 7.96208 39.1686 7.60699 39.1686 7.17446C39.1686 6.74193 39.0378 6.38684 38.7761 6.10917C38.5198 5.83149 38.1967 5.69266 37.8069 5.69266C37.4171 5.69266 37.0914 5.83149 36.8297 6.10917ZM40.9335 9.1769V3.57008H41.5743V8.57616H42.4954V9.1769H40.9335ZM43.4838 8.66427C43.094 8.26912 42.8991 7.77252 42.8991 7.17446C42.8991 6.5764 43.094 6.0798 43.4838 5.68465C43.8736 5.2895 44.3595 5.09193 44.9415 5.09193C45.5236 5.09193 46.0095 5.28683 46.3993 5.67664C46.7891 6.06645 46.984 6.55237 46.984 7.13441V7.3747H43.5398C43.5826 7.74849 43.7347 8.05553 43.9964 8.29582C44.258 8.53612 44.5731 8.65626 44.9415 8.65626C45.3367 8.65626 45.6758 8.53612 45.9588 8.29582C46.0869 8.18903 46.1884 8.06888 46.2631 7.93539H46.9039C46.8078 8.18636 46.6716 8.40796 46.4954 8.60019C46.0789 9.03806 45.561 9.25699 44.9415 9.25699C44.3595 9.25699 43.8736 9.05942 43.4838 8.66427ZM43.5559 6.81402H46.3032C46.2551 6.49897 46.1083 6.23465 45.8627 6.02106C45.617 5.80213 45.31 5.69266 44.9415 5.69266C44.5731 5.69266 44.2634 5.80213 44.0124 6.02106C43.7614 6.23465 43.6092 6.49897 43.5559 6.81402Z" fill="#1A253A"/>
</svg>
