<svg width="120" height="35" viewBox="0 0 120 35" fill="none" xmlns="http://www.w3.org/2000/svg">
<path d="M36.3779 13.8064C35.4986 12.9039 35.0588 11.7963 35.0588 10.4836C35.0588 9.17084 35.4986 8.06909 36.3779 7.17829C37.2691 6.27581 38.3537 5.82458 39.6318 5.82458C40.9099 5.82458 41.9886 6.27581 42.868 7.17829C43.7591 8.06909 44.2047 9.17084 44.2047 10.4836V11.0989H36.9056C37.0463 11.8373 37.3688 12.4175 37.873 12.8394C38.3771 13.2613 38.9634 13.4723 39.6318 13.4723C40.4526 13.4723 41.1092 13.2672 41.6017 12.857C41.8245 12.6929 42.0179 12.4878 42.1821 12.2417H44.1166C43.8707 12.816 43.5598 13.3024 43.1846 13.7009C42.2231 14.662 41.0389 15.1425 39.6318 15.1425C38.3537 15.1425 37.2691 14.6971 36.3779 13.8064ZM36.9935 9.60449H42.27C42.1645 9.01845 41.8831 8.52031 41.4258 8.11012C40.9802 7.69989 40.3822 7.49477 39.6318 7.49477C38.9986 7.49477 38.4358 7.68816 37.9433 8.07493C37.4508 8.45002 37.1343 8.95984 36.9935 9.60449Z" fill="white"/>
<path d="M44.9097 6.00037H46.8445L48.7788 13.2965H49.9221L51.8568 6.00037H53.7916L51.3292 14.9667H47.3721L44.9097 6.00037Z" fill="white"/>
<path d="M55.8209 13.8064C54.9419 12.9039 54.5019 11.7963 54.5019 10.4836C54.5019 9.17084 54.9419 8.06909 55.8209 7.17829C56.7122 6.27581 57.7967 5.82458 59.0752 5.82458C60.3532 5.82458 61.4315 6.27581 62.3111 7.17829C63.2023 8.06909 63.648 9.17084 63.648 10.4836V11.0989H56.349C56.4894 11.8373 56.8121 12.4175 57.3161 12.8394C57.8202 13.2613 58.4067 13.4723 59.0752 13.4723C59.8958 13.4723 60.5525 13.2672 61.0448 12.857C61.2676 12.6929 61.4612 12.4878 61.6252 12.2417H63.5599C63.3135 12.816 63.0031 13.3024 62.6276 13.7009C61.6661 14.662 60.4818 15.1425 59.0752 15.1425C57.7967 15.1425 56.7122 14.6971 55.8209 13.8064ZM56.4366 9.60449H61.7132C61.6077 9.01845 61.326 8.52031 60.869 8.11012C60.4234 7.69989 59.8252 7.49477 59.0752 7.49477C58.4416 7.49477 57.8791 7.68816 57.3863 8.07493C56.894 8.45002 56.5775 8.95984 56.4366 9.60449Z" fill="white"/>
<path d="M65.2321 14.9666V6.00026H67.0788V7.31882H67.1669C67.2959 7.07267 67.4834 6.83825 67.7298 6.61557C68.2692 6.14673 68.9023 5.91235 69.6292 5.91235H70.6844V7.67045H69.5411C68.826 7.67045 68.2339 7.89898 67.7647 8.35609C67.3077 8.80151 67.0788 9.3934 67.0788 10.1318V14.9666H65.2321Z" fill="white"/>
<path d="M71.4698 12.1537H73.4926C73.5746 12.3882 73.7211 12.6109 73.9321 12.8218C74.366 13.2555 74.9524 13.4723 75.6911 13.4723C76.336 13.4723 76.8047 13.3727 77.0977 13.1734C77.3912 12.9742 77.5377 12.7222 77.5377 12.4175C77.5377 12.312 77.5142 12.2182 77.4671 12.1362C77.4204 12.0424 77.3384 11.9604 77.2211 11.89C77.1039 11.8197 76.9922 11.7611 76.8867 11.7142C76.7812 11.6556 76.6229 11.6029 76.4119 11.556C76.2008 11.4974 76.0308 11.4564 75.9021 11.4329C75.7731 11.3978 75.5738 11.3509 75.3039 11.2923C75.0462 11.2337 74.8526 11.1927 74.7235 11.1692C72.8477 10.7473 71.9093 9.84475 71.9093 8.46175C71.9093 7.75849 72.232 7.14314 72.8769 6.6157C73.5218 6.08831 74.3716 5.82458 75.4273 5.82458C76.8928 5.82458 77.989 6.29338 78.7159 7.23105C79.0442 7.64128 79.267 8.11012 79.3843 8.63752H77.4496C77.3559 8.40314 77.2268 8.2156 77.0629 8.07493C76.6526 7.68816 76.1071 7.49477 75.4273 7.49477C74.8992 7.49477 74.5007 7.58852 74.2312 7.77606C73.9731 7.96361 73.844 8.19803 73.844 8.47932C73.844 8.5848 73.8676 8.68443 73.9147 8.77818C73.9613 8.86025 74.0437 8.93643 74.1606 9.00672C74.2779 9.07705 74.3895 9.13565 74.495 9.18253C74.6123 9.22945 74.7706 9.28217 74.9699 9.34077C75.1691 9.38765 75.3392 9.42868 75.48 9.46382C75.6204 9.48728 75.814 9.52831 76.0604 9.58692C76.3181 9.63379 76.5174 9.67483 76.6582 9.70997C78.5345 10.1319 79.4724 11.0344 79.4724 12.4175C79.4724 13.1676 79.1323 13.8122 78.4521 14.3514C77.7841 14.8788 76.8636 15.1425 75.6911 15.1425C74.1667 15.1425 72.9998 14.6444 72.191 13.6481C71.8273 13.191 71.5871 12.6929 71.4698 12.1537Z" fill="white"/>
<path d="M81.8077 13.8239C80.9517 12.9449 80.5235 11.8314 80.5235 10.4836C80.5235 9.13566 80.9517 8.02221 81.8077 7.14314C82.6636 6.26408 83.7306 5.82458 85.0086 5.82458C86.4393 5.82458 87.6057 6.3696 88.5087 7.45963C88.8955 7.96361 89.1654 8.50273 89.3176 9.07705H87.3829C87.3009 8.78403 87.1483 8.52031 86.9259 8.28593C86.4685 7.75849 85.8293 7.49477 85.0086 7.49477C84.2818 7.49477 83.6717 7.77022 83.1794 8.32108C82.6989 8.87193 82.4582 9.59276 82.4582 10.4836C82.4582 11.3743 82.6989 12.0951 83.1794 12.646C83.6717 13.1969 84.2818 13.4723 85.0086 13.4723C85.8528 13.4723 86.5152 13.2086 86.9961 12.6812C87.2072 12.4468 87.3654 12.183 87.471 11.89H89.3176C89.1654 12.4878 88.8955 13.0328 88.5087 13.5251C87.6175 14.6034 86.4511 15.1425 85.0086 15.1425C83.7306 15.1425 82.6636 14.703 81.8077 13.8239Z" fill="white"/>
<path d="M91.4756 13.8591C90.678 12.9918 90.2795 11.8666 90.2795 10.4836C90.2795 9.10051 90.678 7.98118 91.4756 7.12557C92.2844 6.25823 93.293 5.82458 94.5008 5.82458C95.2626 5.82458 95.9603 6.04727 96.5939 6.49265C96.8633 6.68019 97.1036 6.897 97.3147 7.14314H97.4027V6.0004H99.2494V14.9667H97.4027V13.736H97.3147C97.1389 13.9822 96.8987 14.2166 96.5939 14.4393C95.9603 14.9081 95.2626 15.1425 94.5008 15.1425C93.293 15.1425 92.2844 14.7147 91.4756 13.8591ZM92.9176 8.26832C92.4488 8.78403 92.2142 9.52243 92.2142 10.4836C92.2142 11.4446 92.4488 12.183 92.9176 12.6988C93.3867 13.2145 94.0317 13.4723 94.8523 13.4723C95.6263 13.4723 96.242 13.2145 96.6994 12.6988C97.1681 12.1713 97.4027 11.4329 97.4027 10.4836C97.4027 9.53416 97.1681 8.80164 96.6994 8.28593C96.242 7.75849 95.6263 7.49477 94.8523 7.49477C94.0317 7.49477 93.3867 7.7526 92.9176 8.26832Z" fill="white"/>
<path d="M101.353 14.9667V2.65991H103.2V13.2964H105.223V14.9667H101.353Z" fill="white"/>
<path d="M107.246 13.8064C106.367 12.9039 105.927 11.7963 105.927 10.4836C105.927 9.17084 106.367 8.06909 107.246 7.17829C108.137 6.27581 109.222 5.82458 110.5 5.82458C111.778 5.82458 112.857 6.27581 113.736 7.17829C114.627 8.06909 115.073 9.17084 115.073 10.4836V11.0989H107.774C107.914 11.8373 108.237 12.4175 108.741 12.8394C109.245 13.2613 109.831 13.4723 110.5 13.4723C111.32 13.4723 111.977 13.2672 112.469 12.857C112.692 12.6929 112.886 12.4878 113.05 12.2417H114.985C114.739 12.816 114.428 13.3024 114.053 13.7009C113.091 14.662 111.907 15.1425 110.5 15.1425C109.222 15.1425 108.137 14.6971 107.246 13.8064ZM107.861 9.60449H113.138C113.032 9.01845 112.751 8.52031 112.294 8.11012C111.848 7.69989 111.25 7.49477 110.5 7.49477C109.867 7.49477 109.304 7.68816 108.811 8.07493C108.319 8.45002 108.002 8.95984 107.861 9.60449Z" fill="white"/>
<path fill-rule="evenodd" clip-rule="evenodd" d="M21.9276 32.2238L31.1172 23.1021V5.9447H13.9611L4.84012 15.1424H21.9202L21.9276 32.2238Z" fill="#6347F5"/>
</svg>
