<svg width="1430" height="303" viewBox="0 0 1430 303" fill="none" xmlns="http://www.w3.org/2000/svg">
<path d="M0 126.667V174.355C0 181.86 6.09801 187.954 13.6103 187.954H61.3325C68.8448 187.954 74.9428 181.86 74.9428 174.355V126.667C74.9428 119.162 68.8448 113.068 61.3325 113.068H13.6103C6.09801 113.083 0 119.162 0 126.667Z" fill="#4553E5"/>
<path d="M299.772 62.033V14.3464C299.772 6.83974 293.674 0.747375 286.161 0.747375H88.5516C81.0394 0.747375 74.9414 6.83974 74.9414 14.3464V99.4857C74.9414 106.992 81.0394 113.085 88.5516 113.085H134.162C141.674 113.085 147.772 119.179 147.772 126.686V174.372C147.772 181.879 141.674 187.973 134.162 187.973H88.5516C81.0394 187.973 74.9414 194.066 74.9414 201.572V286.711C74.9414 294.218 81.0394 300.31 88.5516 300.31H286.161C293.674 300.31 299.772 294.218 299.772 286.711V238.993C299.772 231.486 293.674 225.392 286.161 225.392H163.494C155.984 225.392 149.884 219.298 149.884 211.793V187.941H286.161C293.674 187.941 299.772 181.847 299.772 174.34V126.669C299.772 119.164 293.674 113.07 286.161 113.07H149.884V89.233C149.884 81.7282 155.984 75.6339 163.494 75.6339H286.161C293.674 75.6339 299.772 69.5397 299.772 62.033Z" fill="#4553E5"/>
<path d="M419.07 116.606V0H503.257V18.3296H438.24V48.3056H490.759V66.6352H438.24V98.2788H503.257V116.606H419.07Z" fill="white"/>
<path d="M510.77 31.6419H529.112L547.455 100.768H558.286L576.628 31.6419H594.971L571.626 116.605H534.115L510.77 31.6419Z" fill="white"/>
<path d="M614.203 105.531C605.818 97.0416 601.609 86.5675 601.609 74.1258C601.609 61.6841 605.802 51.2269 614.203 42.7205C622.589 34.2309 632.848 29.9787 644.965 29.9787C657.082 29.9787 667.325 34.2309 675.727 42.7205C684.113 51.2119 688.32 61.6841 688.32 74.1258V79.9499H619.142C620.477 86.9483 623.525 92.4404 628.307 96.4395C633.086 100.439 638.646 102.438 644.982 102.438C652.762 102.438 658.988 100.5 663.658 96.6139C665.771 95.057 667.596 93.1213 669.152 90.7897H687.495C685.16 96.2331 682.223 100.834 678.666 104.612C669.55 113.721 658.322 118.275 644.997 118.275C632.848 118.275 622.589 114.023 614.203 105.531ZM619.952 65.7957H669.963C668.961 60.2417 666.326 55.528 662.038 51.6396C657.765 47.7512 652.065 45.8155 644.95 45.8155C638.946 45.8155 633.611 47.6255 628.941 51.2269C624.289 54.8302 621.286 59.7014 619.952 65.7957Z" fill="white"/>
<path d="M703.314 116.608V31.6452H720.815V44.1338H721.64C722.863 41.8004 724.643 39.5795 726.977 37.4693C732.09 33.0257 738.094 30.803 744.986 30.803H754.991V47.4669H744.16C737.38 47.4669 731.788 49.609 727.406 53.8782C723.006 58.1473 720.815 63.7951 720.815 70.7785V116.593H703.314V116.608Z" fill="white"/>
<path d="M762.486 89.945H781.654C782.433 92.1677 783.813 94.2779 785.815 96.2774C789.928 100.387 795.486 102.434 802.49 102.434C808.605 102.434 813.05 101.498 815.83 99.6106C818.61 97.7218 819.99 95.3415 819.99 92.4528C819.99 91.4531 819.769 90.5321 819.325 89.7068C818.88 88.8815 818.102 88.1199 816.989 87.454C815.879 86.7882 814.83 86.2011 813.829 85.7077C812.829 85.2163 811.336 84.708 809.335 84.2165C807.333 83.7251 805.729 83.3274 804.506 83.0573C803.283 82.7891 801.426 82.3596 798.917 81.8044C796.424 81.2491 794.55 80.8683 793.327 80.6451C775.539 76.6461 766.647 68.0928 766.647 54.9852C766.647 48.3207 769.695 42.4966 775.81 37.4978C781.924 32.499 789.975 30.008 799.98 30.008C813.878 30.008 824.263 34.4497 831.155 43.3369C834.269 47.2253 836.381 51.6689 837.493 56.6677H819.15C818.261 54.445 817.038 52.6687 815.481 51.335C811.591 47.6699 806.429 45.8448 799.98 45.8448C794.978 45.8448 791.23 46.7339 788.722 48.5102C786.227 50.2884 784.973 52.5092 784.973 55.1765C784.973 56.1763 785.196 57.0954 785.64 57.9207C786.085 58.746 786.863 59.5076 787.976 60.1753C789.086 60.8412 790.166 61.3964 791.23 61.841C792.278 62.2855 793.755 62.762 795.645 63.2534C797.536 63.7449 799.14 64.1425 800.474 64.4126C801.807 64.6977 803.666 65.0785 806.063 65.5699C808.445 66.0614 810.319 66.4909 811.653 66.8229C829.44 70.822 838.333 79.3772 838.333 92.4848C838.333 99.5938 835.143 105.671 828.743 110.719C822.358 115.781 813.59 118.304 802.49 118.304C788.037 118.304 776.986 113.59 769.314 104.148C765.883 99.7851 763.597 95.0545 762.486 89.945Z" fill="white"/>
<path d="M860.504 105.784C852.388 97.4517 848.338 86.8988 848.338 74.1401C848.338 61.3645 852.388 50.8117 860.504 42.4966C868.618 34.1646 878.736 30.008 890.836 30.008C904.4 30.008 915.453 35.1644 924.012 45.4959C927.681 50.2715 930.238 55.3828 931.682 60.8243H913.339C912.563 58.0482 911.117 55.5573 909.005 53.3346C904.67 48.3357 898.619 45.8448 890.836 45.8448C883.945 45.8448 878.196 48.4633 873.589 53.6684C868.984 58.8886 866.666 65.7125 866.666 74.1551C866.666 82.5978 868.969 89.4217 873.589 94.6418C878.196 99.8639 883.945 102.465 890.836 102.465C898.84 102.465 905.114 99.9745 909.672 94.9757C911.672 92.7548 913.165 90.262 914.167 87.4859H931.667C930.223 93.1506 927.664 98.3089 923.997 102.974C915.547 113.195 904.495 118.304 890.821 118.304C878.736 118.272 868.618 114.114 860.504 105.784Z" fill="white"/>
<path d="M952.283 106.024C944.675 97.8669 940.863 87.2353 940.863 74.1258C940.863 61.0182 944.675 50.3866 952.283 42.2291C959.889 34.0715 969.417 29.9787 980.869 29.9787C988.094 29.9787 994.7 32.0889 1000.7 36.3092C1003.26 38.0874 1005.53 40.1339 1007.53 42.4673H1008.36V31.6443H1025.85V116.609H1008.36V104.944H1007.53C1005.86 107.277 1003.6 109.498 1000.7 111.61C994.7 116.054 988.094 118.275 980.869 118.275C969.417 118.275 959.889 114.197 952.283 106.024ZM965.876 53.1477C961.431 58.0358 959.206 65.0341 959.206 74.1427C959.206 83.2512 961.431 90.2496 965.876 95.1377C970.323 100.026 976.438 102.468 984.219 102.468C991.557 102.468 997.416 99.994 1001.8 95.057C1006.18 90.122 1008.39 83.1406 1008.39 74.1577C1008.39 65.1598 1006.2 58.1934 1001.8 53.2583C997.401 48.3233 991.54 45.8473 984.219 45.8473C976.421 45.8154 970.307 48.2595 965.876 53.1477Z" fill="white"/>
<path d="M1045.89 116.606V0H1063.39V100.787H1082.56V116.606H1045.89Z" fill="white"/>
<path d="M1101.82 105.531C1093.44 97.0416 1089.21 86.5675 1089.21 74.1258C1089.21 61.6841 1093.42 51.2269 1101.82 42.7205C1110.2 34.2309 1120.46 29.9787 1132.58 29.9787C1144.7 29.9787 1154.94 34.2309 1163.34 42.7205C1171.73 51.2119 1175.93 61.6841 1175.93 74.1258V79.9499H1106.75C1108.08 86.9483 1111.14 92.4404 1115.93 96.4395C1120.71 100.439 1126.26 102.438 1132.6 102.438C1140.38 102.438 1146.59 100.5 1151.26 96.6139C1153.38 95.057 1155.2 93.1213 1156.76 90.7897H1175.1C1172.78 96.2331 1169.83 100.834 1166.29 104.612C1157.17 113.721 1145.94 118.275 1132.62 118.275C1120.46 118.275 1110.2 114.023 1101.82 105.531ZM1107.56 65.7957H1157.59C1156.57 60.2417 1153.95 55.528 1149.65 51.6396C1145.37 47.7512 1139.67 45.8155 1132.56 45.8155C1126.56 45.8155 1121.23 47.6255 1116.56 51.2269C1111.91 54.8302 1108.89 59.7014 1107.56 65.7957Z" fill="white"/>
<path d="M419.07 300.327V183.719H458.251C476.37 183.719 491.314 189.321 503.099 200.54C514.882 211.759 520.774 225.581 520.774 242.022C520.774 258.463 514.882 272.285 503.099 283.506C491.314 294.724 476.37 300.327 458.251 300.327H419.07ZM438.255 281.997H458.266C471.05 281.997 481.326 278.283 489.106 270.841C496.889 263.398 500.779 253.798 500.779 242.022C500.779 230.248 496.889 220.646 489.106 213.203C481.326 205.76 471.05 202.048 458.266 202.048H438.255V281.997Z" fill="white"/>
<path d="M545.027 289.233C536.641 280.744 532.432 270.27 532.432 257.828C532.432 245.386 536.626 234.929 545.027 226.423C553.412 217.933 563.67 213.679 575.787 213.679C587.906 213.679 598.148 217.933 606.549 226.423C614.935 234.912 619.143 245.386 619.143 257.828V263.652H549.966C551.3 270.651 554.348 276.141 559.129 280.14C563.908 284.139 569.468 286.138 575.804 286.138C583.586 286.138 589.81 284.203 594.481 280.314C596.593 278.759 598.418 276.824 599.975 274.49H618.317C615.984 279.934 613.045 284.537 609.488 288.312C600.372 297.421 589.144 301.975 575.819 301.975C563.67 301.992 553.412 297.74 545.027 289.233ZM550.774 249.513H600.785C599.785 243.959 597.148 239.245 592.86 235.357C588.589 231.468 582.887 229.533 575.772 229.533C569.77 229.533 564.433 231.343 559.765 234.944C555.111 238.547 552.11 243.402 550.774 249.513Z" fill="white"/>
<path d="M635.787 300.327V183.719H717.479V202.048H654.97V235.357H704.155V253.687H654.97V300.327H635.787Z" fill="white"/>
<path d="M732.154 199.873C730.152 197.874 729.152 195.429 729.152 192.541C729.152 189.652 730.152 187.178 732.154 185.13C734.155 183.083 736.601 182.052 739.491 182.052C742.382 182.052 744.86 183.083 746.908 185.13C748.956 187.193 749.988 189.652 749.988 192.541C749.988 195.429 748.956 197.874 746.908 199.873C744.843 201.873 742.382 202.872 739.491 202.872C736.584 202.872 734.155 201.873 732.154 199.873ZM730.82 300.326V215.361H748.32V300.326H730.82Z" fill="white"/>
<path d="M802.488 300.327L832.489 183.719H880.005L910.845 300.327H890.835L882.831 270.349H829.154L821.656 300.327H802.488ZM834.171 252.005H878.178L865.012 202.031H846.669L834.171 252.005Z" fill="white"/>
<path d="M923.363 300.327V183.719H940.864V284.505H960.032V300.327H923.363Z" fill="white"/>
<path d="M971.703 300.327V183.719H989.206V284.505H1008.37V300.327H971.703Z" fill="white"/>
<path d="M1021.39 199.873C1019.38 197.874 1018.37 195.429 1018.37 192.541C1018.37 189.652 1019.38 187.178 1021.39 185.13C1023.38 183.083 1025.83 182.052 1028.72 182.052C1031.61 182.052 1034.09 183.083 1036.13 185.13C1038.18 187.193 1039.21 189.652 1039.21 192.541C1039.21 195.429 1038.18 197.874 1036.13 199.873C1034.07 201.873 1031.61 202.872 1028.72 202.872C1025.83 202.872 1023.38 201.873 1021.39 199.873ZM1020.04 300.326V215.361H1037.54V300.326H1020.04Z" fill="white"/>
<path d="M1063.97 289.743C1056.37 281.586 1052.56 270.954 1052.56 257.845C1052.56 244.737 1056.37 234.105 1063.97 225.948C1071.58 217.792 1081.11 213.697 1092.55 213.697C1099.8 213.697 1106.4 215.808 1112.4 220.028C1114.95 221.806 1117.22 223.853 1119.23 226.186H1120.05V215.363H1137.55V300.328H1120.05V288.663H1119.23C1117.56 290.996 1115.29 293.217 1112.4 295.329C1106.4 299.773 1099.8 301.994 1092.55 301.994C1081.11 301.994 1071.58 297.899 1063.97 289.743ZM1077.55 236.849C1073.1 241.738 1070.89 248.736 1070.89 257.845C1070.89 266.955 1073.1 273.953 1077.55 278.84C1081.99 283.728 1088.11 286.172 1095.89 286.172C1103.23 286.172 1109.1 283.696 1113.47 278.761C1117.86 273.826 1120.07 266.842 1120.07 257.861C1120.07 248.863 1117.88 241.897 1113.47 236.962C1109.08 232.025 1103.21 229.551 1095.89 229.551C1088.11 229.519 1081.99 231.963 1077.55 236.849Z" fill="white"/>
<path d="M1157.59 300.328V215.363H1175.09V227.026H1175.91C1177.25 224.805 1179.29 222.585 1182.07 220.362C1188.07 215.918 1194.9 213.697 1202.57 213.697C1213.13 213.697 1221.33 216.76 1227.16 222.853C1232.99 228.964 1235.9 237.849 1235.9 249.514V300.328H1218.4V251.18C1218.4 243.737 1216.77 238.262 1213.48 234.771C1210.2 231.28 1205.18 229.519 1198.38 229.519C1191.61 229.519 1186.02 231.819 1181.63 236.437C1177.25 241.04 1175.05 247.07 1175.05 254.513V300.328H1157.59Z" fill="white"/>
<path d="M1262.27 289.488C1254.15 281.158 1250.1 270.605 1250.1 257.844C1250.1 245.07 1254.15 234.518 1262.27 226.202C1270.38 217.871 1280.51 213.712 1292.6 213.712C1306.17 213.712 1317.21 218.87 1325.79 229.202C1329.44 233.977 1331.99 239.087 1333.46 244.53H1315.11C1314.34 241.754 1312.9 239.261 1310.78 237.04C1306.45 232.042 1300.41 229.551 1292.62 229.551C1285.72 229.551 1279.98 232.169 1275.37 237.374C1270.77 242.594 1268.44 249.418 1268.44 257.861C1268.44 266.304 1270.75 273.128 1275.37 278.348C1279.98 283.57 1285.72 286.171 1292.62 286.171C1300.61 286.171 1306.9 283.68 1311.45 278.682C1313.46 276.459 1314.94 273.968 1315.94 271.192H1333.46C1331.99 276.857 1329.44 282.015 1325.79 286.68C1317.33 296.899 1306.28 302.01 1292.6 302.01C1280.51 301.993 1270.38 297.82 1262.27 289.488Z" fill="white"/>
<path d="M1355.19 289.233C1346.81 280.744 1342.61 270.27 1342.61 257.828C1342.61 245.386 1346.81 234.929 1355.19 226.423C1363.58 217.933 1373.84 213.679 1385.96 213.679C1398.07 213.679 1408.33 217.933 1416.72 226.423C1425.1 234.912 1429.32 245.386 1429.32 257.828V263.652H1360.15C1361.48 270.651 1364.52 276.141 1369.3 280.14C1374.08 284.139 1379.63 286.138 1385.97 286.138C1393.76 286.138 1399.99 284.203 1404.66 280.314C1406.78 278.759 1408.6 276.824 1410.15 274.49H1428.5C1426.15 279.934 1423.23 284.537 1419.66 288.312C1410.55 297.421 1399.31 301.975 1385.99 301.975C1373.84 301.992 1363.58 297.74 1355.19 289.233ZM1360.95 249.513H1410.96C1409.96 243.959 1407.32 239.245 1403.04 235.357C1398.77 231.468 1393.06 229.533 1385.96 229.533C1379.95 229.533 1374.61 231.343 1369.94 234.944C1365.28 238.547 1362.28 243.402 1360.95 249.513Z" fill="white"/>
</svg>
