<svg width="201" height="34" viewBox="0 0 201 34" fill="none" xmlns="http://www.w3.org/2000/svg">
<path fill-rule="evenodd" clip-rule="evenodd" d="M96.9234 25.7744L96.9004 16.1636L92.1739 24.0811H90.499L85.7954 16.3695V25.7744H82.3079V9.7561H85.3823L91.3937 19.7103L97.3134 9.7561H100.365L100.411 25.7743L96.9234 25.7744ZM103.439 25.7744H107.019V13.4633H103.439V25.7744ZM103.623 11.175C103.21 10.7937 103.003 10.3208 103.003 9.75621C103.003 9.19205 103.21 8.719 103.623 8.3375C104.036 7.95644 104.571 7.76547 105.229 7.76547C105.886 7.76547 106.422 7.94856 106.835 8.31453C107.248 8.68083 107.454 9.13835 107.454 9.68752C107.454 10.2825 107.248 10.7746 106.835 11.1635C106.422 11.5526 105.886 11.747 105.229 11.747C104.571 11.747 104.036 11.5565 103.623 11.175V11.175ZM120.985 14.6533C121.926 15.5686 122.396 16.9265 122.396 18.7264V25.7743H118.817V19.2756C118.817 18.2995 118.602 17.5708 118.174 17.0902C117.746 16.6098 117.126 16.3695 116.316 16.3695C115.413 16.3695 114.694 16.6479 114.159 17.2048C113.623 17.7617 113.356 18.5891 113.356 19.6876V25.7743H109.776V13.4633H113.195V14.9048C113.669 14.3865 114.258 13.9861 114.962 13.7035C115.665 13.4215 116.438 13.2803 117.279 13.2803C118.809 13.2803 120.044 13.7379 120.985 14.6533V14.6533ZM128.733 16.667C128.183 17.1245 127.846 17.7502 127.724 18.5433H133.804C133.681 17.7654 133.345 17.1439 132.794 16.6783C132.244 16.2132 131.57 15.9805 130.775 15.9805C129.964 15.9805 129.284 16.2092 128.733 16.667V16.667ZM137.108 20.6257H127.769C127.938 21.3887 128.335 21.9911 128.963 22.4333C129.589 22.8761 130.37 23.097 131.303 23.097C131.945 23.097 132.515 23.0019 133.012 22.811C133.509 22.6205 133.972 22.319 134.4 21.9071L136.305 23.9666C135.142 25.2938 133.444 25.9574 131.211 25.9574C129.819 25.9574 128.588 25.6868 127.517 25.1451C126.446 24.6036 125.62 23.8522 125.039 22.8911C124.457 21.93 124.167 20.8395 124.167 19.6189C124.167 18.4139 124.454 17.3269 125.027 16.3581C125.601 15.3895 126.389 14.6343 127.391 14.0925C128.393 13.5513 129.513 13.2803 130.752 13.2803C131.96 13.2803 133.054 13.5398 134.033 14.0583C135.012 14.577 135.781 15.3207 136.339 16.2893C136.897 17.2583 137.177 18.3832 137.177 19.6646C137.177 19.7104 137.154 20.0307 137.108 20.6257V20.6257ZM144.179 13.7379C144.905 13.433 145.743 13.2802 146.692 13.2802V16.5754C146.294 16.545 146.026 16.5297 145.888 16.5297C144.864 16.5297 144.06 16.8156 143.479 17.3877C142.898 17.9598 142.607 18.8179 142.607 19.9621V25.7743H139.028V13.4634H142.447V15.0881C142.875 14.4931 143.452 14.0434 144.179 13.738V13.7379ZM159.715 17.5135H163.11V24.0124C162.239 24.6685 161.229 25.1718 160.082 25.5227C158.935 25.8734 157.779 26.0488 156.617 26.0488C154.95 26.0488 153.451 25.6943 152.12 24.9848C150.789 24.2754 149.745 23.2915 148.988 22.0329C148.231 20.7744 147.852 19.3521 147.852 17.7653C147.852 16.1789 148.231 14.7562 148.988 13.4976C149.745 12.239 150.797 11.2551 152.143 10.5458C153.489 9.83638 155.003 9.48167 156.686 9.48167C158.093 9.48167 159.371 9.71836 160.518 10.1911C161.665 10.664 162.629 11.3505 163.409 12.2506L161.023 14.4473C159.875 13.2424 158.491 12.6395 156.87 12.6395C155.845 12.6395 154.934 12.8533 154.139 13.2803C153.344 13.7075 152.724 14.3099 152.281 15.088C151.837 15.866 151.616 16.7585 151.616 17.7653C151.616 18.7571 151.837 19.6417 152.281 20.4197C152.724 21.1977 153.34 21.8042 154.128 22.239C154.915 22.6736 155.814 22.8912 156.824 22.8912C157.894 22.8912 158.858 22.6622 159.715 22.2046V17.5135H159.715ZM172.118 23.1313C172.592 22.8493 172.929 22.4333 173.128 21.8843V20.6258H170.673C169.204 20.6258 168.47 21.1064 168.47 22.0674C168.47 22.5251 168.65 22.8877 169.009 23.1543C169.369 23.4215 169.862 23.5548 170.489 23.5548C171.101 23.5548 171.644 23.414 172.118 23.1315V23.1313ZM175.17 14.6419C176.195 15.5497 176.707 16.9187 176.707 18.7495V25.7744H173.357V24.2413C172.684 25.3853 171.43 25.9575 169.595 25.9575C168.646 25.9575 167.824 25.7974 167.128 25.4769C166.432 25.1565 165.9 24.7143 165.533 24.1498C165.166 23.5856 164.983 22.9448 164.983 22.2276C164.983 21.0835 165.415 20.1835 166.279 19.5273C167.143 18.8716 168.478 18.5434 170.283 18.5434H173.128C173.128 17.7655 172.891 17.1669 172.417 16.7471C171.942 16.3278 171.231 16.1179 170.283 16.1179C169.625 16.1179 168.979 16.2208 168.344 16.4268C167.709 16.6327 167.17 16.9112 166.726 17.262L165.442 14.7677C166.115 14.2952 166.922 13.9289 167.862 13.6693C168.803 13.4101 169.77 13.2804 170.765 13.2804C172.677 13.2804 174.145 13.7344 175.17 14.6419H175.17ZM187.25 25.1793C186.898 25.4388 186.466 25.6335 185.954 25.7629C185.441 25.8922 184.902 25.9574 184.336 25.9574C182.868 25.9574 181.732 25.5839 180.929 24.8362C180.126 24.0888 179.724 22.9905 179.724 21.541V16.4839H177.82V13.7379H179.724V10.7403H183.303V13.7379H186.378V16.4839H183.303V21.4953C183.303 22.0141 183.437 22.4146 183.705 22.6967C183.973 22.9791 184.351 23.12 184.841 23.12C185.407 23.12 185.888 22.9677 186.286 22.6624L187.25 25.1794V25.1793ZM192.252 16.667C191.701 17.1245 191.365 17.7502 191.242 18.5433H197.323C197.2 17.7654 196.864 17.1439 196.313 16.6783C195.762 16.2132 195.089 15.9805 194.294 15.9805C193.483 15.9805 192.803 16.2092 192.252 16.667V16.667ZM200.627 20.6257H191.288C191.456 21.3887 191.854 21.9911 192.481 22.4333C193.108 22.8761 193.888 23.097 194.822 23.097C195.464 23.097 196.034 23.0019 196.531 22.811C197.028 22.6205 197.491 22.319 197.919 21.9071L199.823 23.9666C198.661 25.2938 196.963 25.9574 194.73 25.9574C193.338 25.9574 192.106 25.6868 191.036 25.1451C189.965 24.6036 189.139 23.8522 188.558 22.8911C187.976 21.93 187.686 20.8395 187.686 19.6189C187.686 18.4139 187.973 17.3269 188.546 16.3581C189.12 15.3895 189.908 14.6343 190.91 14.0925C191.911 13.5513 193.032 13.2803 194.271 13.2803C195.479 13.2803 196.573 13.5398 197.552 14.0583C198.531 14.577 199.299 15.3207 199.858 16.2893C200.416 17.2583 200.695 18.3832 200.695 19.6646C200.695 19.7104 200.672 20.0307 200.627 20.6257" fill="#2E2E2E"/>
<path fill-rule="evenodd" clip-rule="evenodd" d="M49.4683 0.59375L33.0663 16.9519L41.2672 25.1301L57.6693 8.77281L49.4683 0.59375Z" fill="#1EA0F2"/>
<path fill-rule="evenodd" clip-rule="evenodd" d="M41.2672 25.1301L49.4682 33.3092H82.2719L57.6694 8.77292L41.2672 25.1301Z" fill="#1576B3"/>
<path fill-rule="evenodd" clip-rule="evenodd" d="M0.262695 33.3092H16.6649L33.066 16.952L24.865 8.77292L0.262695 33.3092Z" fill="#B4DFFB"/>
<path fill-rule="evenodd" clip-rule="evenodd" d="M16.665 33.3092H33.0662L41.2672 25.1302L33.0662 16.952L16.665 33.3092Z" fill="#69C0F6"/>
<path fill-rule="evenodd" clip-rule="evenodd" d="M49.4683 0.59375L33.0663 16.9519L41.2672 25.1301L57.6693 8.77281L49.4683 0.59375Z" fill="#1EA0F2"/>
<path fill-rule="evenodd" clip-rule="evenodd" d="M41.2672 25.1301L49.4682 33.3092H82.2719L57.6694 8.77292L41.2672 25.1301Z" fill="#1576B3"/>
<path fill-rule="evenodd" clip-rule="evenodd" d="M0.262695 33.3092H16.6649L33.066 16.952L24.865 8.77292L0.262695 33.3092Z" fill="#B4DFFB"/>
<path fill-rule="evenodd" clip-rule="evenodd" d="M16.665 33.3092H33.0662L41.2672 25.1302L33.0662 16.952L16.665 33.3092Z" fill="#69C0F6"/>
</svg>
