<svg width="170" height="67" viewBox="0 0 170 67" fill="none" xmlns="http://www.w3.org/2000/svg">
<g clip-path="url(#clip0_2_192)">
<path d="M158.1 53.089C158.553 53.089 158.95 52.6347 158.95 52.2373C158.95 50.6475 155.947 49.739 154.247 49.739C149.373 49.739 147.107 53.8839 147.107 58.2559C147.107 62.4576 149.657 66.2619 154.19 66.2619C155.437 66.2619 159.233 65.6941 159.233 63.9907C159.233 63.4797 159.007 63.0822 158.497 63.0822C157.42 63.0822 156.853 64.5017 154.02 64.5017C150.563 64.5017 149.203 60.811 149.203 57.8017C149.203 54.7924 150.847 51.4424 154.36 51.4424C156.797 51.4991 157.193 53.089 158.1 53.089ZM140.25 51.783H145.18C145.747 51.783 146.087 51.3856 146.087 50.8746C146.087 50.3636 145.747 49.9661 145.237 49.9661H139.173C138.663 49.9661 138.323 50.4771 138.323 51.1017V65.1263C138.323 65.6941 138.493 66.2619 139.287 66.2619H145.067C145.633 66.2619 146.03 65.9212 146.03 65.3534C146.03 64.7856 145.747 64.3881 145.18 64.3881H140.25V59.1076H144.67C145.237 59.1076 145.577 58.7102 145.577 58.1992C145.577 57.6314 145.237 57.2907 144.67 57.2907H140.193L140.25 51.783ZM123.987 49.739C123.42 49.739 123.137 50.1932 123.137 50.8178V65.2398C123.137 65.8076 123.59 66.2619 124.1 66.2619C124.667 66.2619 125.12 65.8644 125.12 65.2966V53.4297L133.563 65.6941C133.903 66.2051 134.243 66.2619 134.697 66.2619C135.263 66.2619 135.603 65.8644 135.603 65.2966V50.8178C135.603 50.1932 135.207 49.739 134.583 49.739C133.96 49.739 133.62 50.1932 133.62 50.8178V62.628L125.233 50.4771C124.837 49.9661 124.44 49.739 123.987 49.739ZM99.11 49.739C94.7466 49.739 92.0266 53.4864 92.0266 58.0288C92.0266 62.5712 94.8033 66.2619 99.11 66.2619C103.417 66.2619 106.137 62.628 106.137 58.0288C106.193 53.9407 103.813 49.739 99.11 49.739ZM99.11 51.4991C102.68 51.4991 104.04 54.5653 104.04 58.0288C104.04 61.2652 102.623 64.5585 99.11 64.5585C95.4833 64.5585 94.18 61.2085 94.18 58.0288C94.18 54.622 95.7666 51.4991 99.11 51.4991ZM90.3266 53.089C90.78 53.089 91.1766 52.6347 91.1766 52.2373C91.1766 50.6475 88.1733 49.739 86.4733 49.739C81.6 49.739 79.3333 53.8839 79.3333 58.2559C79.3333 62.4576 81.8833 66.2619 86.4167 66.2619C87.6633 66.2619 91.46 65.6941 91.46 63.9907C91.46 63.4797 91.2333 63.0822 90.7233 63.0822C89.6467 63.0822 89.08 64.5017 86.2466 64.5017C82.79 64.5017 81.43 60.811 81.43 57.8017C81.43 54.7924 83.0733 51.4424 86.5867 51.4424C88.9667 51.4991 89.42 53.089 90.3266 53.089ZM145.747 9.36864C144.557 9.36864 143.423 10.3339 143.423 11.5831C143.423 12.2644 143.82 13.1729 144.387 13.911L152.773 25.1534L143.14 37.7585C142.403 38.6669 142.12 39.6322 142.12 40.2568C142.12 41.6763 143.253 42.6415 144.443 42.6415C145.52 42.6415 146.313 42.3008 146.993 41.2788L155.72 28.9008L164.107 40.7678C165.013 42.0737 165.92 42.5847 166.883 42.5847C168.073 42.5847 169.093 41.6763 169.093 40.4271C169.093 39.3483 168.753 38.4398 167.96 37.361L158.837 25.1534L167.223 13.7975C167.677 13.1161 167.96 12.4915 167.96 11.9237C167.96 10.4475 166.997 9.42542 165.693 9.42542C164.787 9.42542 164.107 9.87966 163.483 10.7314L155.777 21.1788L148.013 10.561C147.447 9.7661 146.71 9.36864 145.747 9.36864ZM132.713 0C131.24 0 130.163 0.965254 130.163 2.49831V9.7661H127.84C126.31 9.7661 125.29 10.7314 125.29 12.1508C125.29 13.4568 126.48 14.422 127.84 14.422H130.163V39.9161C130.163 41.8466 130.843 42.6415 132.6 42.6415C134.13 42.6415 135.32 41.6195 135.32 40.0297V14.3653H137.927C139.173 14.3653 140.137 13.3432 140.137 12.0941C140.137 10.5042 139.117 9.70932 137.7 9.70932H135.32V2.55508C135.32 0.908474 134.243 0 132.713 0ZM82.6766 9.36864C81.26 9.36864 80.0133 10.4475 80.0133 11.9805V39.9729C80.0133 41.5627 81.26 42.5847 82.5633 42.5847C84.0366 42.5847 85.17 41.5059 85.17 39.9729V21.1788C85.17 16.75 87.9467 14.0246 91.97 14.0246C96.2767 14.0246 98.7133 16.8636 98.7133 21.7466V39.9729C98.7133 41.5627 99.96 42.5847 101.263 42.5847C102.737 42.5847 103.87 41.5059 103.87 39.9729V21.1788C103.87 16.75 106.647 14.0246 110.67 14.0246C114.977 14.0246 117.413 16.8636 117.413 21.7466V39.9729C117.413 41.5627 118.66 42.5847 119.963 42.5847C121.437 42.5847 122.57 41.5059 122.57 39.9729V21.0653C122.57 14.5356 118.66 9.42542 111.973 9.42542C107.667 9.42542 104.72 11.072 101.943 14.933C99.9033 11.4127 97.0133 9.42542 93.3867 9.42542C89.93 9.42542 87.2666 10.7314 85.2266 13.3432H85.1133V12.3212C85.17 10.561 84.2633 9.36864 82.6766 9.36864ZM55.6466 54.3381C50.66 56.6661 45.39 58.3127 39.8933 59.1076C36.04 59.6754 31.0533 59.789 26.7467 59.4483C33.3767 59.5051 39.0433 58.3695 41.82 57.7449C58.0267 53.8839 66.81 41.0517 65.3367 23.45C65.28 22.5415 64.5433 21.8602 63.6367 21.8602C62.9567 21.8602 62.3333 22.2576 62.05 22.939C56.61 36.5661 44.37 46.7864 29.5233 50.6475C29.6933 50.5907 29.8633 50.5339 30.0333 50.4771C42.2167 46.1619 51.2266 38.2695 54.23 29.3551C56.6666 22.0873 55.25 14.3653 50.0367 6.35932C49.64 5.79153 49.0733 5.45085 48.3933 5.45085C47.3167 5.45085 46.41 6.30254 46.3533 7.38136C45.8433 21.7466 40.5733 28.9576 35.53 34.1246C33.7167 35.9415 31.96 37.5881 30.2033 38.9508C35.1333 34.522 38.76 28.7873 40.5167 22.3144C41.3667 19.078 43.4067 7.94915 32.81 0.283898C32.1867 -0.170339 31.1666 0 30.6566 0.567797C30.3733 0.908475 30.26 1.30593 30.3167 1.76017C32.1867 14.422 29.07 27.0839 21.6467 37.4746C21.3633 37.8153 21.1367 38.1559 20.8533 38.5534C23.12 35.3169 24.82 31.7398 25.84 27.9356C26.69 24.6992 28.73 13.5703 18.0767 5.8483C17.4533 5.39407 16.49 5.56441 15.98 6.18898C15.6967 6.52966 15.5267 6.9839 15.64 7.38136C17.17 17.772 15.3567 28.1627 10.54 37.3042C12.41 32.0805 12.9767 26.4025 12.1833 20.7814C11.8433 18.3398 11.22 15.9551 10.37 13.6271C9.91665 12.4347 8.04665 12.1508 7.25332 13.1729C2.77665 18.7941 0.283319 25.6076 -1.47057e-05 32.7619C-0.113348 35.7712 0.509985 38.3263 1.41665 40.3136C1.41665 40.3136 0.283319 40.5407 0.679985 41.7898C3.00332 49.228 10.54 58.0288 16.4333 62.0602C21.5333 65.4669 27.6533 67 33.7733 67C35.36 67 37.0033 66.8864 38.59 66.6593C45.8433 65.5805 52.4167 62.1737 57.46 56.8932C57.9133 56.439 58.0267 55.7576 57.7433 55.1898C57.4033 54.3381 56.44 53.9407 55.6466 54.3381ZM23.29 38.6102C30.8266 28.1059 34.0567 15.3305 32.47 2.49831C41.0833 9.42542 39.3266 18.9644 38.59 21.8034C36.55 29.2415 31.96 35.7144 25.6133 40.0297C23.63 41.3356 21.59 42.3576 19.3233 43.0958C20.74 41.6763 22.1566 40.2 23.29 38.6102ZM17.7367 8.06271C26.35 14.9898 24.65 24.5288 23.8566 27.311C22.1 33.9542 18.19 39.8593 12.8067 44.1178C11.5033 44.1178 10.2 43.9475 8.95332 43.6636C16.2633 33.2729 19.3233 20.7246 17.7367 8.06271ZM8.55665 14.7059C9.29332 16.75 9.85999 18.9076 10.1433 21.0085C11.22 28.5034 9.68999 36.1119 5.72332 42.528C3.68332 41.1653 1.81332 37.7585 1.98332 32.8754C2.32332 26.2322 4.53332 19.9864 8.55665 14.7059ZM8.83999 48.5466C7.42332 47.6949 6.34665 46.9 5.49665 46.0483C5.55332 46.1051 5.66665 46.1051 5.72332 46.1619C8.32999 47.1839 10.9933 47.6949 13.6567 47.6949C21.25 47.6949 28.8433 43.7203 36.9466 35.4873C42.2733 30.0932 47.8267 22.5415 48.3367 7.49491C53.21 14.9331 54.57 22.0873 52.3033 28.7305C49.5267 37.0771 40.9133 44.5153 29.3533 48.6034C20.7967 51.6127 13.94 51.6127 8.83999 48.5466ZM10.3133 53.089C12.9767 54.111 16.0367 54.5653 19.2667 54.3381C38.93 53.2025 56.1 41.6763 63.41 24.9263C64.26 40.7678 56.0433 52.2373 41.31 55.8144C38.7033 56.439 33.4333 57.461 27.2566 57.461C21.7033 57.461 14.9033 56.6093 10.3133 53.089ZM38.3066 64.6153C31.11 65.6941 23.7433 64.161 17.5667 60.3C17.34 60.1297 17.0567 59.9593 16.7733 59.789C22.4967 61.4356 28.7866 61.6627 31.79 61.6627C34.7933 61.6627 37.6833 61.4924 40.2333 61.0949C45.1067 60.3568 49.8666 59.0508 54.23 57.1771C49.7533 61.2085 44.3133 63.7636 38.3066 64.6153ZM108.857 49.739C108.29 49.739 108.007 50.1932 108.007 50.8178V65.2398C108.007 65.8076 108.46 66.2619 108.97 66.2619C109.537 66.2619 109.99 65.8644 109.99 65.2966V53.4297L118.433 65.6941C118.773 66.2051 119.113 66.2619 119.567 66.2619C120.133 66.2619 120.473 65.8644 120.473 65.2966V50.8178C120.473 50.1932 120.077 49.739 119.453 49.739C118.83 49.739 118.49 50.1932 118.49 50.8178V62.628L110.103 50.4771C109.707 49.9661 109.31 49.739 108.857 49.739ZM163.993 51.783V65.2966C163.993 65.8644 164.447 66.3186 164.957 66.3186C165.523 66.3186 165.977 65.8644 165.977 65.2966V51.783H169.093C169.66 51.783 170 51.3856 170 50.8746C170 50.3068 169.603 49.9661 169.037 49.9661H160.933C160.367 49.9661 159.97 50.3636 159.97 50.8746C159.97 51.3856 160.367 51.783 160.877 51.783H163.993Z" fill="black"/>
</g>
<defs>
<clipPath id="clip0_2_192">
<rect width="170" height="67" fill="white"/>
</clipPath>
</defs>
</svg>
